<?xml version="1.0" encoding="UTF-8" standalone="no"?>
<svg
   xmlns:dc="http://purl.org/dc/elements/1.1/"
   xmlns:cc="http://creativecommons.org/ns#"
   xmlns:rdf="http://www.w3.org/1999/02/22-rdf-syntax-ns#"
   xmlns:svg="http://www.w3.org/2000/svg"
   xmlns="http://www.w3.org/2000/svg"
   xmlns:sodipodi="http://sodipodi.sourceforge.net/DTD/sodipodi-0.dtd"
   xmlns:inkscape="http://www.inkscape.org/namespaces/inkscape"
   version="1.1"
   id="Layer_1"
   x="0px"
   y="0px"
   viewBox="0 0 16.000001 16"
   xml:space="preserve"
   sodipodi:docname="alien-icon.svg"
   width="16"
   height="16"
   inkscape:version="1.0.2 (e86c870879, 2021-01-15)"><metadata
     id="metadata11"><rdf:RDF><cc:Work
         rdf:about=""><dc:format>image/svg+xml</dc:format><dc:type
           rdf:resource="http://purl.org/dc/dcmitype/StillImage" /><dc:title></dc:title></cc:Work></rdf:RDF></metadata><defs
     id="defs9" /><sodipodi:namedview
     pagecolor="#ffffff"
     bordercolor="#666666"
     borderopacity="1"
     objecttolerance="10"
     gridtolerance="10"
     guidetolerance="10"
     inkscape:pageopacity="0"
     inkscape:pageshadow="2"
     inkscape:window-width="1920"
     inkscape:window-height="1016"
     id="namedview7"
     showgrid="false"
     inkscape:zoom="3.483073"
     inkscape:cx="-30.060621"
     inkscape:cy="95.806045"
     inkscape:window-x="1920"
     inkscape:window-y="27"
     inkscape:window-maximized="1"
     inkscape:current-layer="Layer_1" /><g
     id="g4"
     transform="matrix(0.13020676,0,0,0.13020676,1.9766702,4.1368622e-4)"><path
       d="m 13.51,12.7 c 2.25,-2.18 4.65,-4.07 7.17,-5.67 9.21,-5.85 20.07,-7.97 30.52,-6.66 10.45,1.31 20.51,6.05 28.14,13.9 2.17,2.23 4.13,4.7 5.85,7.4 5.23,8.23 7.32,15.71 7.33,23.33 0.01,7.53 -2.02,15.08 -5.04,23.59 -2.25,6.34 -7.2,17.13 -12.38,26.84 -4.33,8.11 -8.85,15.52 -12.15,19.05 -4.39,4.69 -9.67,7.92 -15.54,8.35 -5.09,0.37 -10.55,-1.36 -16.13,-6.07 C 27.27,113.37 22.83,106.75 18.7,99.29 12.95,88.91 7.76,76.86 5.22,69.89 1.56,59.83 -0.65,49.77 0.17,40.13 1,30.35 4.91,21.06 13.51,12.7 Z m 55.78,48.53 c -12,4.64 -21.48,18.53 -18.82,28.79 4.42,-0.28 8.09,-1.64 11.69,-3.64 3.44,-1.92 10.35,-8.51 14.5,-14.67 6.66,-9.89 2.83,-14.43 -7.37,-10.48 z m -46.96,0 c 12,4.64 21.48,18.53 18.82,28.79 C 36.73,89.74 33.06,88.38 29.46,86.38 26.02,84.46 19.11,77.87 14.96,71.71 8.29,61.82 12.12,57.28 22.33,61.23 Z m 0.29,-51.15 c -2.33,1.48 -4.54,3.21 -6.59,5.21 -7.9,7.68 -11.49,16.19 -12.25,25.13 -0.77,9.07 1.34,18.63 4.84,28.24 2.5,6.86 7.6,18.71 13.24,28.89 3.93,7.1 8.1,13.36 11.76,16.45 4.78,4.03 9.35,5.53 13.54,5.22 4.88,-0.36 9.37,-3.14 13.16,-7.2 3.07,-3.28 7.4,-10.41 11.6,-18.29 C 77,84.2 81.86,73.61 84.07,67.39 86.97,59.21 88.92,52.01 88.91,45 88.9,38.07 86.97,31.22 82.13,23.61 80.54,21.1 78.73,18.83 76.75,16.79 69.72,9.55 60.42,5.18 50.76,3.97 41.11,2.75 31.1,4.7 22.62,10.08 Z"
       id="path2" /></g></svg>
