<?xml version="1.0" encoding="UTF-8" standalone="no"?>
<svg
   xmlns:dc="http://purl.org/dc/elements/1.1/"
   xmlns:cc="http://creativecommons.org/ns#"
   xmlns:rdf="http://www.w3.org/1999/02/22-rdf-syntax-ns#"
   xmlns:svg="http://www.w3.org/2000/svg"
   xmlns="http://www.w3.org/2000/svg"
   xmlns:sodipodi="http://sodipodi.sourceforge.net/DTD/sodipodi-0.dtd"
   xmlns:inkscape="http://www.inkscape.org/namespaces/inkscape"
   viewBox="0 0 16 16"
   version="1.1"
   id="svg8"
   sodipodi:docname="axolotl.svg"
   width="16"
   height="16"
   inkscape:version="1.0.2 (e86c870879, 2021-01-15)">
  <metadata
     id="metadata14">
    <rdf:RDF>
      <cc:Work
         rdf:about="">
        <dc:format>image/svg+xml</dc:format>
        <dc:type
           rdf:resource="http://purl.org/dc/dcmitype/StillImage" />
        <dc:title />
      </cc:Work>
    </rdf:RDF>
  </metadata>
  <defs
     id="defs12" />
  <sodipodi:namedview
     pagecolor="#ffffff"
     bordercolor="#666666"
     borderopacity="1"
     objecttolerance="10"
     gridtolerance="10"
     guidetolerance="10"
     inkscape:pageopacity="0"
     inkscape:pageshadow="2"
     inkscape:window-width="1920"
     inkscape:window-height="1016"
     id="namedview10"
     showgrid="false"
     inkscape:zoom="32"
     inkscape:cx="10.293844"
     inkscape:cy="8.8261201"
     inkscape:window-x="1920"
     inkscape:window-y="27"
     inkscape:window-maximized="1"
     inkscape:current-layer="svg8"
     inkscape:document-rotation="0" />
  <g
     id="g841"
     transform="matrix(0.03313301,0,0,0.03313301,-0.42698122,-1.0819459)"
     style="stroke:#000000;fill:#000000;stroke-width:4.01412368;stroke-miterlimit:4;stroke-dasharray:none">
    <g
       class=""
       style="stroke:#000000;stroke-width:4.01412368;stroke-miterlimit:4;stroke-dasharray:none;fill:#000000"
       id="g6">
      <path
         d="m 402.6,64.8 c -33.6,24 -36.4,49.3 -54.3,89 11.9,5 22.9,10.5 33,16.4 33.7,-32.6 4,-64 21.3,-105.4 z m -310.02,13 c -6.35,41.3 18.52,66.5 43.02,89.3 19,17.8 37.6,34.5 45.6,54.5 2.6,-7.3 5.8,-14.4 9.5,-21.1 -5.5,-39.6 -26.5,-57.6 -47.9,-73.6 C 123.6,112.6 104.4,99.7 92.58,77.8 Z M 193.7,147 c -1.9,0 -3.9,0.1 -5.8,0.1 10.2,14.2 17.7,32.3 20.1,57.5 0.1,1.6 -0.2,3.2 -0.9,4.6 -4.5,10.7 -53.3,137.3 138.3,140.2 1,-0.1 1.9,-0.2 2.9,-0.3 171,-20.9 90,-203.5 -154.6,-202.1 z m 151.7,202.4 h 0.1 z M 487.4,150 c -29.8,26.5 -58.8,2.1 -86.2,33.2 11.2,8.3 20.8,17.1 28.8,26.1 22.4,-18.7 45.3,-23.4 57.4,-59.3 z M 101,155.7 c -21.56,3.8 -44.05,8.9 -67.39,15.4 10.74,6.2 21.82,6.5 34.15,6.9 21.15,0.6 45.64,0.8 77.14,20.9 -11.3,-11.4 -24.6,-22.5 -36.4,-34.9 -2.6,-2.7 -5.1,-5.5 -7.5,-8.3 z m -69.61,33 c 4.56,11 10.1,19.5 16.45,26.3 15.39,16.3 35.28,22 55.66,26.7 23.9,5.5 48.5,9.7 69.3,23.5 0.1,-6.4 0.8,-12.9 1.9,-19.2 -47.9,-50.3 -80.58,-50.6 -107.44,-51.4 -12.9,-0.4 -24.58,-1 -35.87,-5.9 z M 488,211.1 c -11.6,13.8 -27.6,12.7 -44.7,15.7 1.9,3 3.7,6 5.3,9 4.2,8.2 7.3,16.4 9.2,24.5 C 490,244.4 488,211.1 488,211.1 Z m -460.07,5.8 -0.44,77 c 22.25,2.7 40.6,-7.6 59.83,-16.3 13.08,-5.9 26.58,-11.4 41.38,-13.1 -9.5,-2.5 -19.3,-4.4 -28.9,-6.6 -23.6,-5.4 -46.3,-12.6 -64.1,-31.5 -2.7,-2.9 -5.3,-6 -7.77,-9.5 z m 378.97,32.9 c 6,-0.1 11.3,2.6 13.5,7.3 3.1,6.9 -1.5,15.7 -10.3,19.6 -8.9,3.8 -18.6,1.4 -21.8,-5.5 -3.2,-6.9 1.4,-15.7 10.3,-19.6 2.7,-1.2 5.6,-1.8 8.3,-1.8 z m -134.6,8 c 3.2,0 6.5,0.7 9.8,2.1 10.4,4.6 15.8,14.8 12,22.9 -3.7,8.1 -15.1,11 -25.5,6.5 -10.4,-4.6 -15.8,-14.8 -12,-22.9 2.5,-5.6 8.7,-8.7 15.7,-8.6 z m -134.2,23.1 c -16.2,0 -30.3,5.7 -43.92,11.9 -21.63,9.7 -42.41,20.3 -67.16,17.8 15.04,10.8 35.55,13.7 56.34,13.2 39.94,-1 81.44,-15.3 94.84,-20.3 -1.4,-4.4 -2.5,-8.8 -3.4,-13.3 -13.6,-6.8 -25.6,-9.4 -36.7,-9.3 z m -9.9,54.2 c -14.1,2.9 -29.38,5 -44.43,5.4 -7.71,0.2 -15.36,-0.1 -22.77,-1 C 31.33,380.2 57.19,411 24.25,453 l 33.73,-2 8.1,37 42.92,-30 h 42.2 l -20.7,-26 c 14.6,-45 43,-63.9 78.3,-72.1 -8.3,-9.4 -29.3,-23.3 -80.6,-24.8 z m 292.1,19 -90.1,32.4 42.4,23 -20.6,25.6 43.3,-1 57.8,29.2 -4.3,-23.7 c 0,0 22.2,7.7 31.6,-6 -44.2,-15.9 -34.6,-44.5 -60.1,-79.5 z"
         fill="#ffffff"
         fill-opacity="1"
         id="path4"
         style="stroke:#000000;stroke-width:4.01412368;stroke-miterlimit:4;stroke-dasharray:none;fill:#000000" />
    </g>
  </g>
</svg>
