<?xml version="1.0" encoding="UTF-8" standalone="no"?>
<svg
   xmlns:dc="http://purl.org/dc/elements/1.1/"
   xmlns:cc="http://creativecommons.org/ns#"
   xmlns:rdf="http://www.w3.org/1999/02/22-rdf-syntax-ns#"
   xmlns:svg="http://www.w3.org/2000/svg"
   xmlns="http://www.w3.org/2000/svg"
   xmlns:sodipodi="http://sodipodi.sourceforge.net/DTD/sodipodi-0.dtd"
   xmlns:inkscape="http://www.inkscape.org/namespaces/inkscape"
   id="Layer_1"
   data-name="Layer 1"
   viewBox="0 0 16.000001 16"
   version="1.1"
   sodipodi:docname="health.svg"
   width="16"
   height="16"
   inkscape:version="1.0.2 (e86c870879, 2021-01-15)">
  <metadata
     id="metadata13">
    <rdf:RDF>
      <cc:Work
         rdf:about="">
        <dc:format>image/svg+xml</dc:format>
        <dc:type
           rdf:resource="http://purl.org/dc/dcmitype/StillImage" />
        <dc:title>public-health</dc:title>
      </cc:Work>
    </rdf:RDF>
  </metadata>
  <sodipodi:namedview
     pagecolor="#ffffff"
     bordercolor="#666666"
     borderopacity="1"
     objecttolerance="10"
     gridtolerance="10"
     guidetolerance="10"
     inkscape:pageopacity="0"
     inkscape:pageshadow="2"
     inkscape:window-width="1422"
     inkscape:window-height="752"
     id="namedview11"
     showgrid="false"
     inkscape:zoom="22.627417"
     inkscape:cx="12.270419"
     inkscape:cy="7.8042222"
     inkscape:window-x="2234"
     inkscape:window-y="246"
     inkscape:window-maximized="0"
     inkscape:current-layer="Layer_1"
     inkscape:document-rotation="0" />
  <defs
     id="defs4">
    <style
       id="style2">.cls-1{fill-rule:evenodd;}</style>
  </defs>
  <title
     id="title6">public-health</title>
  <path
     class="cls-1"
     d="M 7.9265035,3.4218707 C 8.9181942,2.3885708 9.6116842,1.4962805 11.137363,1.3205963 c 2.866424,-0.33056362 5.501686,2.6052104 4.054602,5.4924402 -0.41147,0.8252528 -1.250592,1.8030736 -2.177556,2.7739595 -1.019432,1.054105 -2.145197,2.08047 -2.935776,2.868736 l -2.1521295,2.13595 -1.7776457,-1.71292 C 4.0105971,10.819096 0.52003127,8.2231325 0.4044498,5.0192093 0.32585417,2.7491855 2.1011884,1.3067264 4.1446719,1.3321545 5.9708621,1.3575824 6.7383242,2.2568077 7.9265035,3.4126242 Z M 7.4387492,5.3451496 h 1.107272 c 0.2071994,-3.8e-6 0.3755247,0.1672896 0.376796,0.3744845 v 1.2043606 h 1.2043618 c 0.212628,-0.00394 0.386377,0.1687712 0.38373,0.3814196 v 1.1049606 c 5e-6,0.2071991 -0.167289,0.3755246 -0.374483,0.3767961 H 8.9320638 V 9.9591686 C 8.9308038,10.166743 8.7628415,10.334703 8.5552677,10.335966 H 7.4387492 C 7.2315536,10.334695 7.0642606,10.166369 7.0642645,9.9591686 V 8.7825477 H 5.8691502 C 5.6615763,8.7812858 5.4936159,8.6133254 5.4923541,8.4057516 V 7.3054143 C 5.4936252,7.0982187 5.6619509,6.9309257 5.8691502,6.9309296 H 7.073511 V 5.7196341 C 7.0746597,5.5168643 7.2360714,5.3513663 7.4387492,5.3451496 Z"
     id="path8"
     style="fill:none;stroke:#000000;stroke-width:0.769;stroke-miterlimit:4;stroke-dasharray:none"
     sodipodi:nodetypes="cccccccccccccccccccccccccccccccc" />
</svg>
