<?xml version="1.0" encoding="UTF-8" standalone="no"?>
<svg
   xmlns:dc="http://purl.org/dc/elements/1.1/"
   xmlns:cc="http://creativecommons.org/ns#"
   xmlns:rdf="http://www.w3.org/1999/02/22-rdf-syntax-ns#"
   xmlns:svg="http://www.w3.org/2000/svg"
   xmlns="http://www.w3.org/2000/svg"
   xmlns:sodipodi="http://sodipodi.sourceforge.net/DTD/sodipodi-0.dtd"
   xmlns:inkscape="http://www.inkscape.org/namespaces/inkscape"
   id="Layer_1"
   data-name="Layer 1"
   viewBox="0 0 16.000001 16"
   version="1.1"
   sodipodi:docname="health-icon.svg"
   width="16"
   height="16"
   inkscape:version="1.0.2 (e86c870879, 2021-01-15)">
  <metadata
     id="metadata13">
    <rdf:RDF>
      <cc:Work
         rdf:about="">
        <dc:format>image/svg+xml</dc:format>
        <dc:type
           rdf:resource="http://purl.org/dc/dcmitype/StillImage" />
        <dc:title>public-health</dc:title>
      </cc:Work>
    </rdf:RDF>
  </metadata>
  <sodipodi:namedview
     pagecolor="#ffffff"
     bordercolor="#666666"
     borderopacity="1"
     objecttolerance="10"
     gridtolerance="10"
     guidetolerance="10"
     inkscape:pageopacity="0"
     inkscape:pageshadow="2"
     inkscape:window-width="1920"
     inkscape:window-height="1016"
     id="namedview11"
     showgrid="false"
     inkscape:zoom="32.834676"
     inkscape:cx="7.0896451"
     inkscape:cy="17.93778"
     inkscape:window-x="1920"
     inkscape:window-y="27"
     inkscape:window-maximized="1"
     inkscape:current-layer="Layer_1"
     inkscape:document-rotation="0" />
  <defs
     id="defs4">
    <style
       id="style2">.cls-1{fill-rule:evenodd;}</style>
  </defs>
  <title
     id="title6">public-health</title>
  <path
     class="cls-1"
     d="M 7.9581109,2.4772971 C 8.5096152,1.9026528 8.8952826,1.4064275 9.7437507,1.3087251 11.337842,1.1248903 12.803378,2.7575487 11.998618,4.3632104 11.769789,4.8221545 11.303132,5.3659454 10.787624,5.9058797 10.220692,6.492094 9.5946257,7.0628817 9.1549648,7.5012568 L 7.9581109,8.6891123 6.969517,7.7365138 C 5.780376,6.591082 3.8391838,5.1474006 3.774906,3.3656176 3.731197,2.1031998 4.7185054,1.3010117 5.8549384,1.3151529 6.8705291,1.329294 7.2973342,1.829376 7.9581109,2.4721549 Z M 11.742794,13.338975 h 0.09899 a 0.13884023,0.13884023 0 0 1 0.138839,0.138841 v 1.088866 a 0.13884023,0.13884023 0 0 1 -0.138843,0.13884 H 8.6651677 a 0.13884023,0.13884023 0 0 1 -0.1388403,-0.13884 v -1.094008 a 0.13884023,0.13884023 0 0 1 0.1388403,-0.138841 c 0.9307434,0 2.1854483,-0.07327 3.0776263,0 z M 11.636092,13.058723 H 8.6664533 A 0.13755467,0.13755467 0 0 1 8.5378975,12.91474 c 0.01157,-0.257111 0.03471,-0.505223 0.060421,-0.762335 0.025711,-0.214688 0.047566,-0.40238 0.075849,-0.565645 a 2.2111594,2.2111594 0 0 1 0.119557,-0.452517 v 0 a 1.5131015,1.5131015 0 0 1 0.2326846,-0.394666 2.8539383,2.8539383 0 0 1 0.3998087,-0.401094 c 0.1067012,-0.0887 0.2018329,-0.164551 0.314962,-0.244256 L 9.8543089,10.026091 10.297825,9.7792632 A 7.5487951,7.5487951 0 0 0 11.087158,9.3254613 7.5500807,7.5500807 0 0 0 12.00119,8.56184 C 12.228734,8.3651497 12.550123,8.108038 12.751956,7.8984922 A 1.94762,1.94762 0 0 1 13.158192,7.5256804 0.66849004,0.66849004 0 0 1 13.56957,7.3971247 v 0 a 0.32138944,0.32138944 0 0 1 0.09641,0.024425 0.33038834,0.33038834 0 0 1 0.07327,0.044995 l 0.01157,0.01157 a 0.29182161,0.29182161 0 0 1 0.06299,0.083561 0.42809073,0.42809073 0 0 1 0.03342,0.086132 v 0 a 0.58235766,0.58235766 0 0 1 -0.03856,0.3483862 0.93460051,0.93460051 0 0 1 -0.208259,0.3149616 l -1.891047,2.1108865 a 0.13626912,0.13626912 0 0 0 0.110558,0.227544 0.13884023,0.13884023 0 0 0 0.08871,-0.03856 q 0.933316,-1.0515937 1.879485,-2.0954666 a 1.3421222,1.3421222 0 0 0 0.128556,-0.142697 1.1724287,1.1724287 0 0 0 0.09641,-0.1439824 c 0.329108,-0.523222 0.815048,-1.9154812 1.0863,-2.5621166 l 0.0257,-0.03985 a 0.84075477,0.84075477 0 0 1 0.168416,-0.1401249 h 0.0077 a 0.49365418,0.49365418 0 0 1 0.199261,-0.06942 v 0 a 0.30853386,0.30853386 0 0 1 0.0977,0 0.31881832,0.31881832 0 0 1 0.08227,0.030853 l 0.01414,0.00771 a 0.34195837,0.34195837 0 0 1 0.09127,0.080991 0.54379092,0.54379092 0 0 1 0.05656,0.1092724 1.1865698,1.1865698 0 0 1 0.04627,0.5335065 3.3733036,3.3733036 0 0 1 -0.165836,0.6903445 C 15.551868,7.454975 15.386031,8.045046 15.226622,8.6351171 a 4.8478382,4.8478382 0 0 1 -0.31239,0.9333149 4.4814543,4.4814543 0 0 1 -0.671061,0.946172 c -0.302105,0.347099 -0.59907,0.659491 -0.88832,0.948742 -0.289251,0.289249 -0.575931,0.560502 -0.853611,0.822755 l -0.752051,0.722484 a 0.13884023,0.13884023 0 0 1 -0.106702,0.05014 z m -4.3079045,0 H 4.364977 A 0.13884023,0.13884023 0 0 1 4.2582757,13.008587 L 3.8983195,12.657629 3.5010822,12.280961 C 3.2182594,12.013564 2.9302945,11.741027 2.6526141,11.463347 v 0 C 2.3633636,11.175382 2.0689708,10.864277 1.7694359,10.519746 A 4.4994521,4.4994521 0 0 1 1.0906614,9.5722905 4.851695,4.851695 0 0 1 0.77955642,8.6389755 C 0.61629059,8.0463334 0.4543103,7.4511201 0.27818889,6.8700479 a 3.3424501,3.3424501 0 0 1 -0.16583695,-0.6903444 1.1711432,1.1711432 0 0 1 0.043709,-0.5322209 0.49493974,0.49493974 0 0 1 0.0565646,-0.1105579 0.33810168,0.33810168 0 0 1 0.0874179,-0.088703 l 0.0154267,-0.00772 a 0.28667939,0.28667939 0 0 1 0.0822757,-0.032139 0.30596275,0.30596275 0 0 1 0.0977023,0 v 0 a 0.48079861,0.48079861 0 0 1 0.19926145,0.06942 h 0.008999 a 0.82661364,0.82661364 0 0 1 0.16969367,0.1439826 l 0.0257116,0.041136 C 1.1690804,6.3056881 1.6614491,7.7120883 1.9866952,8.2250258 a 0.98088059,0.98088059 0 0 0 0.097703,0.1401258 v 0 a 1.2302788,1.2302788 0 0 0 0.1285554,0.1362691 c 0.6427791,0.642779 1.2495622,1.4269692 1.880771,2.0954603 a 0.13884023,0.13884023 0 0 0 0.186406,0 0.12855577,0.12855577 0 0 0 0.04628,-0.09514 0.13498357,0.13498357 0 0 0 -0.033424,-0.09899 L 2.4006447,8.3111582 A 0.91531709,0.91531709 0 0 1 2.1846711,8.0064811 0.56307429,0.56307429 0 0 1 2.1461043,7.6580948 v 0 a 0.36381285,0.36381285 0 0 1 0.033424,-0.086133 0.28153715,0.28153715 0 0 1 0.062992,-0.084846 0.33167391,0.33167391 0 0 1 0.084846,-0.055278 0.35609949,0.35609949 0 0 1 0.095132,-0.024425 h 0.00771 a 0.66849004,0.66849004 0 0 1 0.4113832,0.1285554 1.9141954,1.9141954 0 0 1 0.4049508,0.3728119 c 0.2172592,0.2275436 0.514223,0.4460883 0.7507657,0.6672044 a 7.7544844,7.7544844 0 0 0 0.9140352,0.7636206 7.6837787,7.6837787 0 0 0 0.790618,0.4396607 l 0.4422319,0.2391132 0.1118436,0.06942 c 0.113129,0.0797 0.2095458,0.156838 0.3149615,0.244257 a 2.8012303,2.8012303 0 0 1 0.4010941,0.401093 1.5079592,1.5079592 0 0 1 0.2314004,0.394667 v 0 a 2.2972917,2.2972917 0 0 1 0.119557,0.452516 c 0.026997,0.163266 0.050137,0.350958 0.074562,0.565646 0.026997,0.25711 0.047566,0.503937 0.061707,0.76105 a 0.13755467,0.13755467 0 0 1 -0.12856,0.145264 z m -3.0969086,0.277681 c 0.8831783,0.07842 2.1751638,0 3.1033365,0 a 0.13884023,0.13884023 0 0 1 0.1388402,0.13884 v 1.088867 a 0.13884023,0.13884023 0 0 1 -0.1388402,0.13884 H 4.1580022 a 0.13755467,0.13755467 0 0 1 -0.1375548,-0.13884 v -1.091437 a 0.13755467,0.13755467 0 0 1 0.1375548,-0.138841 h 0.073277 z M 7.6868583,3.5468813 H 8.3026404 A 0.20954591,0.20954591 0 0 1 8.5121862,3.7551416 V 4.4249171 H 9.181962 a 0.20954591,0.20954591 0 0 1 0.2134024,0.2121171 v 0.6144966 a 0.20954591,0.20954591 0 0 1 -0.20826,0.2095459 H 8.5173285 V 6.1128545 A 0.21083147,0.21083147 0 0 1 8.3077826,6.3224004 H 7.6868583 A 0.20954591,0.20954591 0 0 1 7.4785979,6.1128545 V 5.4585056 H 6.8139645 A 0.21083147,0.21083147 0 0 1 6.6044186,5.2489597 V 4.6370342 A 0.20954591,0.20954591 0 0 1 6.8139645,4.4287738 H 7.4837401 V 3.7551416 A 0.20954591,0.20954591 0 0 1 7.6868583,3.5468813 Z"
     id="path8"
     style="fill:none;stroke:#000000;stroke-width:0.199112;stroke-miterlimit:4;stroke-dasharray:none" />
</svg>
