<?xml version="1.0" encoding="UTF-8" standalone="no"?>
<svg
   xmlns:dc="http://purl.org/dc/elements/1.1/"
   xmlns:cc="http://creativecommons.org/ns#"
   xmlns:rdf="http://www.w3.org/1999/02/22-rdf-syntax-ns#"
   xmlns:svg="http://www.w3.org/2000/svg"
   xmlns="http://www.w3.org/2000/svg"
   xmlns:sodipodi="http://sodipodi.sourceforge.net/DTD/sodipodi-0.dtd"
   xmlns:inkscape="http://www.inkscape.org/namespaces/inkscape"
   fill="#000000"
   viewBox="0 0 16 16"
   width="16"
   height="16"
   version="1.1"
   id="svg4"
   sodipodi:docname="human-head.svg"
   inkscape:version="1.0.2 (e86c870879, 2021-01-15)">
  <metadata
     id="metadata10">
    <rdf:RDF>
      <cc:Work
         rdf:about="">
        <dc:format>image/svg+xml</dc:format>
        <dc:type
           rdf:resource="http://purl.org/dc/dcmitype/StillImage" />
        <dc:title></dc:title>
      </cc:Work>
    </rdf:RDF>
  </metadata>
  <defs
     id="defs8" />
  <sodipodi:namedview
     pagecolor="#ffffff"
     bordercolor="#666666"
     borderopacity="1"
     objecttolerance="10"
     gridtolerance="10"
     guidetolerance="10"
     inkscape:pageopacity="0"
     inkscape:pageshadow="2"
     inkscape:window-width="1920"
     inkscape:window-height="1016"
     id="namedview6"
     showgrid="false"
     inkscape:zoom="9.4575532"
     inkscape:cx="-2.1590698"
     inkscape:cy="37.140894"
     inkscape:window-x="1920"
     inkscape:window-y="27"
     inkscape:window-maximized="1"
     inkscape:current-layer="svg4" />
  <path
     d="M 8.0000005,0 C 4.3255208,0 1.3333335,2.9921873 1.3333335,6.666667 V 9.0625 h 0.020833 c -0.01302,0.08854 -0.020833,0.179687 -0.020833,0.270833 0,0.880209 0.5625,1.630209 1.3541667,1.895834 C 2.9687502,13.90625 5.2500002,16 8.0000005,16 c 2.7500005,0 5.0312505,-2.09375 5.3125005,-4.770833 0.791666,-0.265625 1.354166,-1.015625 1.354166,-1.895834 0,-0.09115 -0.0078,-0.182291 -0.02083,-0.270833 h 0.02083 V 6.666667 C 14.666667,2.9921873 11.674479,0 8.0000005,0 Z m 0,1.3333333 c 2.9531255,0 5.3333335,2.3802087 5.3333335,5.3333337 V 7.4375 c -0.02083,-0.0078 -0.04167,-0.01302 -0.0625,-0.02083 -0.263021,-1.195313 -1.33073,-2.0833337 -2.604167,-2.0833337 -0.367187,0 -0.666666,-0.2994793 -0.666666,-0.6666666 V 4 H 8.6666665 v 0.6666667 c 0,0.3671873 -0.299479,0.6666666 -0.666666,0.6666666 h -2.666667 c -1.2734373,0 -2.341146,0.8880207 -2.6041667,2.0833337 -0.020833,0.0078 -0.041667,0.01302 -0.0625,0.02083 V 6.666664 c 0,-2.953125 2.3802087,-5.3333337 5.3333337,-5.3333337 z m 1.333333,4.8124997 c 0.354167,0.317709 0.8203135,0.520834 1.3333335,0.520834 0.734376,0 1.333334,0.598958 1.333334,1.333333 v 0.666667 h 0.666666 c 0.367187,0 0.666667,0.299479 0.666667,0.666666 C 13.333334,9.700521 13.033854,10 12.666667,10 h -0.666666 v 0.666667 c 0,2.205729 -1.794271,4 -4.0000005,4 -2.20573,0 -4.0000003,-1.794271 -4.0000003,-4 V 10 H 3.3333335 C 2.9661462,10 2.6666668,9.700521 2.6666668,9.333333 c 0,-0.367187 0.2994794,-0.666666 0.6666667,-0.666666 H 4.0000002 V 8 c 0,-0.734375 0.5989586,-1.333333 1.3333333,-1.333333 h 2.666667 c 0.51302,0 0.979166,-0.203125 1.333333,-0.520834 z m -3.333333,2.520834 c -0.367188,0 -0.666667,0.299479 -0.666667,0.666666 0,0.367188 0.299479,0.666667 0.666667,0.666667 0.367187,0 0.666666,-0.299479 0.666666,-0.666667 0,-0.367187 -0.299479,-0.666666 -0.666666,-0.666666 z m 4.0000005,0 c -0.3671885,0 -0.6666675,0.299479 -0.6666675,0.666666 0,0.367188 0.299479,0.666667 0.6666675,0.666667 0.367187,0 0.666666,-0.299479 0.666666,-0.666667 0,-0.367187 -0.299479,-0.666666 -0.666666,-0.666666 z"
     id="path2"
     style="stroke-width:0.666667" />
</svg>
