<?xml version="1.0" encoding="UTF-8" standalone="no"?>
<svg
   xmlns:dc="http://purl.org/dc/elements/1.1/"
   xmlns:cc="http://creativecommons.org/ns#"
   xmlns:rdf="http://www.w3.org/1999/02/22-rdf-syntax-ns#"
   xmlns:svg="http://www.w3.org/2000/svg"
   xmlns="http://www.w3.org/2000/svg"
   xmlns:sodipodi="http://sodipodi.sourceforge.net/DTD/sodipodi-0.dtd"
   xmlns:inkscape="http://www.inkscape.org/namespaces/inkscape"
   width="16"
   height="16"
   viewBox="0 0 4.2333332 4.2333334"
   version="1.1"
   id="svg8"
   inkscape:version="1.0.2 (e86c870879, 2021-01-15)"
   sodipodi:docname="ryck-morty.svg">
  <defs
     id="defs2" />
  <sodipodi:namedview
     id="base"
     pagecolor="#ffffff"
     bordercolor="#666666"
     borderopacity="1.0"
     inkscape:pageopacity="0.0"
     inkscape:pageshadow="2"
     inkscape:zoom="2.8"
     inkscape:cx="64.823999"
     inkscape:cy="64.082121"
     inkscape:document-units="mm"
     inkscape:current-layer="layer1"
     inkscape:document-rotation="0"
     showgrid="false"
     units="px"
     inkscape:window-width="1920"
     inkscape:window-height="1016"
     inkscape:window-x="1920"
     inkscape:window-y="27"
     inkscape:window-maximized="1" />
  <metadata
     id="metadata5">
    <rdf:RDF>
      <cc:Work
         rdf:about="">
        <dc:format>image/svg+xml</dc:format>
        <dc:type
           rdf:resource="http://purl.org/dc/dcmitype/StillImage" />
        <dc:title></dc:title>
      </cc:Work>
    </rdf:RDF>
  </metadata>
  <g
     inkscape:label="Capa 1"
     inkscape:groupmode="layer"
     id="layer1"
     transform="translate(-47.344744,-23.055128)">
    <path
       style="fill:#000000;stroke:#ffffff;stroke-width:0.0145307"
       d="m 49.272418,23.074318 c -0.37498,0.04984 -0.737468,0.1621 -1.046212,0.388417 -1.139702,0.83543 -1.157137,2.590129 0,3.420778 0.215695,0.154839 0.454875,0.265476 0.712005,0.331272 0.257209,0.06582 0.521682,0.08408 0.784659,0.04865 0.332202,-0.04475 0.652009,-0.155101 0.929967,-0.345061 1.198857,-0.819285 1.204946,-2.627322 0.02906,-3.466209 -0.203706,-0.145332 -0.4406,-0.25464 -0.682944,-0.316739 -0.228684,-0.0586 -0.491109,-0.09239 -0.726536,-0.06111 m 1.336827,3.568392 h -0.01453 c -0.01639,-0.07921 -0.127391,-0.24865 -0.09939,-0.318368 0.05091,-0.126781 0.28704,-0.196383 0.299943,-0.335529 0.0042,-0.0457 -0.02746,-0.08502 -0.02706,-0.130762 0.0018,-0.207397 0.03309,-0.375343 -0.07668,-0.566698 -0.194741,-0.339438 -0.685865,-0.456236 -0.997723,-0.19865 -0.165897,0.137025 -0.318644,0.379296 -0.300742,0.60551 0.0046,0.05838 0.04866,0.103226 0.0569,0.159838 0.01815,0.12479 -0.08482,0.206932 0.09853,0.261553 l -0.02906,-0.08718 h 0.01453 c 0.136923,0.260768 0.364765,0.37761 0.653883,0.377799 v 0.01453 l -0.435922,-0.07265 -0.145307,0.508576 h -0.01453 l -0.17014,-0.668413 -0.09547,-0.255305 -0.27203,-0.09343 c 0.08698,0.128931 0.264169,0.357078 0.248505,0.523048 -0.0061,0.06495 -0.102486,0.09737 -0.09403,0.160114 0.0094,0.06968 0.101323,0.116421 0.121608,0.188682 h -0.01453 c -0.03739,-0.05308 -0.154055,-0.132724 -0.144435,-0.202864 0.01178,-0.08583 0.129439,-0.09965 0.101947,-0.203997 -0.03275,-0.124383 -0.112162,-0.254026 -0.178437,-0.363268 -0.02665,-0.04393 -0.08407,-0.10311 -0.07751,-0.158312 0.01163,-0.09759 0.230893,-0.192721 0.312963,-0.219487 l -0.07265,-0.116245 0.130777,-0.02906 -0.02906,-0.159838 0.1889,-0.07265 -0.1889,-0.130777 V 25.0298 l 0.319676,-0.145308 v -0.02906 l -0.232491,-0.08718 0.217961,-0.247023 -0.290615,-0.04359 0.159838,-0.319676 c -0.07216,0.0167 -0.199986,0.09866 -0.271681,0.07574 -0.07877,-0.02518 -0.06656,-0.303396 -0.048,-0.366351 l -0.332899,0.214956 -0.24833,-0.244018 -0.07265,0.334207 -0.305146,-0.08718 0.08718,0.305145 -0.377799,0.02906 c 0.05316,0.07547 0.199803,0.17386 0.194774,0.276026 -0.0044,0.08944 -0.173222,0.17123 -0.238366,0.218019 0.0739,0.02097 0.306506,0.07139 0.271633,0.188957 -0.02138,0.07207 -0.108295,0.119022 -0.140857,0.188842 0.213763,0.03158 0.182191,0.09669 0.174369,0.276083 l 0.174369,-0.01453 0.01453,0.145307 0.101715,-0.02906 c -0.08899,-0.169123 -0.158231,-0.343433 -0.159838,-0.537636 h 0.01453 c 0.0033,0.157891 0.05376,0.348708 0.146832,0.478206 0.03487,0.04852 0.188565,0.1127 0.180603,0.173933 -0.01208,0.09288 -0.272401,0.09849 -0.33451,0.157251 -0.09751,0.09226 -0.137113,0.39698 -0.167294,0.527436 -0.207529,-0.203328 -0.380648,-0.475983 -0.462886,-0.755597 -0.229237,-0.779428 0.03011,-1.635041 0.724439,-2.091281 0.986884,-0.648473 2.425687,-0.148889 2.733462,1.016007 0.124369,0.470723 0.06869,0.982059 -0.166057,1.40948 -0.06612,0.120387 -0.148141,0.234904 -0.243055,0.334207 -0.07664,0.08017 -0.174224,0.142343 -0.173802,0.261553 m -1.961648,-0.712005 -0.01453,0.01453 0.01453,-0.01453 m -0.01453,0.02906 -0.01453,0.01453 0.01453,-0.01453 m -0.01453,0.02906 -0.115259,0.363268 0.115259,0.217961 h -0.01453 c -0.0016,-0.08734 -0.09323,-0.110738 -0.119408,-0.188913 -0.03207,-0.09577 0.07409,-0.318238 0.133938,-0.392316 z"
       id="path847" />
  </g>
</svg>
