<?xml version="1.0" encoding="UTF-8" standalone="no"?>
<svg
   xmlns:dc="http://purl.org/dc/elements/1.1/"
   xmlns:cc="http://creativecommons.org/ns#"
   xmlns:rdf="http://www.w3.org/1999/02/22-rdf-syntax-ns#"
   xmlns:svg="http://www.w3.org/2000/svg"
   xmlns="http://www.w3.org/2000/svg"
   xmlns:sodipodi="http://sodipodi.sourceforge.net/DTD/sodipodi-0.dtd"
   xmlns:inkscape="http://www.inkscape.org/namespaces/inkscape"
   class="svg-icon"
   style="overflow:hidden;fill:currentColor"
   viewBox="0 0 16.760912 16"
   version="1.1"
   id="svg10"
   sodipodi:docname="robot.svg"
   width="16.760912"
   height="16"
   inkscape:version="1.0.2 (e86c870879, 2021-01-15)">
  <metadata
     id="metadata16">
    <rdf:RDF>
      <cc:Work
         rdf:about="">
        <dc:format>image/svg+xml</dc:format>
        <dc:type
           rdf:resource="http://purl.org/dc/dcmitype/StillImage" />
      </cc:Work>
    </rdf:RDF>
  </metadata>
  <defs
     id="defs14" />
  <sodipodi:namedview
     pagecolor="#ffffff"
     bordercolor="#666666"
     borderopacity="1"
     objecttolerance="10"
     gridtolerance="10"
     guidetolerance="10"
     inkscape:pageopacity="0"
     inkscape:pageshadow="2"
     inkscape:window-width="1920"
     inkscape:window-height="1016"
     id="namedview12"
     showgrid="false"
     inkscape:zoom="18.915106"
     inkscape:cx="23.923857"
     inkscape:cy="16.502426"
     inkscape:window-x="1920"
     inkscape:window-y="27"
     inkscape:window-maximized="1"
     inkscape:current-layer="svg10" />
  <path
     d="m 16.760911,9.9051226 h -1.904649 v -0.380929 a 5.3330173,5.3330173 0 0 0 -2.110351,-4.357837 l 1.855128,-2.910304 a 1.1427894,1.1427894 0 1 0 -0.643771,-0.411404 l -1.839891,2.895066 A 7.4319405,7.4319405 0 0 0 8.380456,3.8102466 7.4319405,7.4319405 0 0 0 4.643534,4.7397146 L 2.803643,1.8446486 A 1.1427894,1.1427894 0 1 0 2.159872,2.2560526 L 4.015,5.1663566 a 5.3330173,5.3330173 0 0 0 -2.110351,4.357837 v 0.380929 H 0 V 14.476281 H 1.904649 V 16 h 12.951613 v -1.523719 h 1.904649 z M 0.76186,13.714421 v -3.047438 h 1.142789 v 3.047438 z m 13.332543,1.52372 H 2.666509 V 9.5241936 c 0,-3.428369 2.868401,-4.952088 5.713947,-4.952088 2.845545,0 5.713947,1.523719 5.713947,4.952088 z m 1.904649,-1.52372 h -1.14279 v -3.047438 h 1.14279 z"
     id="path2"
     style="stroke-width:0.0178561" />
  <path
     d="m 6.475807,10.666983 m -0.76186,0 a 0.76185962,0.76185962 0 1 0 1.523719,0 0.76185962,0.76185962 0 1 0 -1.523719,0 z"
     id="path4"
     style="stroke-width:0.0178561" />
  <path
     d="m 10.285105,10.666983 m -0.76186,0 a 0.76185962,0.76185962 0 1 0 1.523719,0 0.76185962,0.76185962 0 1 0 -1.523719,0 z"
     id="path6"
     style="stroke-width:0.0178561" />
  <path
     d="M 11.046964,8.3814036 H 5.713947 a 2.285579,2.285579 0 0 0 0,4.5711584 h 5.333017 a 2.285579,2.285579 0 0 0 0,-4.5711584 z m 0,3.8092984 H 5.713947 a 1.5237192,1.5237192 0 0 1 0,-3.0474384 h 5.333017 a 1.5237192,1.5237192 0 0 1 0,3.0474384 z"
     id="path8"
     style="stroke-width:0.0178561" />
</svg>
